PathFileType	4	(X/Y/Z)	path1_03_0-527.trc
DataRate	CameraRate	NumFrames	NumMarkers	Units	OrigDataRate	OrigDataStartFrame	OrigNumFrames
30	30	4	22	m	30	0	527
Frame#	Time	Hip			RHip			RKnee			RAnkle			RBigToe			RSmallToe			RHeel			LHip			LKnee			LAnkle			LBigToe			LSmallToe			LHeel			Neck			Head			Nose			RShoulder			RElbow			RWrist			LShoulder			LElbow			LWrist		
		X1	Y1	Z1	X2	Y2	Z2	X3	Y3	Z3	X4	Y4	Z4	X5	Y5	Z5	X6	Y6	Z6	X7	Y7	Z7	X8	Y8	Z8	X9	Y9	Z9	X10	Y10	Z10	X11	Y11	Z11	X12	Y12	Z12	X13	Y13	Z13	X14	Y14	Z14	X15	Y15	Z15	X16	Y16	Z16	X17	Y17	Z17	X18	Y18	Z18	X19	Y19	Z19	X20	Y20	Z20	X21	Y21	Z21	X22	Y22	Z22
1	0.0333333333333333	2.631953054362841	0.8236415977784032	0.6915407700893058	2.6421542488222456	0.7891268777157265	0.6203641615852037	2.611758202154021	0.4636126029191831	0.5931315228867595	2.6903470469517545	0.09512687593423436	0.6182470244249518	2.5022051943212404	0.021682272523551902	0.5793211783695255	2.5564926374327097	0.01683441477438088	0.5365252590680483	2.7364535150219385	0.037282630073095374	0.6193479350555027	2.6249844153076656	0.7917458923909573	0.7874529569223319	2.6396362015999055	0.4343900730597341	0.7758446171632565	2.6977869890318993	0.09987477352410101	0.8007943158946857	2.510468068870134	0.011459093671456758	0.7928996335358399	2.5605094986867565	0.023588053236691997	0.8731916378066588	2.7454052282035053	0.02710389197079745	0.7776771875356943	2.589703705479414	1.4658214088391948	0.7142027621170183	2.5038375258946286	1.6858242025708743	0.690962865959205	2.449655598269199	1.5947200820750371	0.6723232897751193	2.643543848938376	1.3629639901775317	0.541744939579014	2.674866905652197	1.0687199176743776	0.527721767915132	2.606101171320933	0.8368996653103433	0.47779916811702555	2.6244733616295295	1.3487553470628797	0.8364828806222498	2.6527202007725617	1.0658534788853722	0.9000087281017949	2.6280660467248413	0.8289430324166663	0.8996897768145447
2	0.0666666666666666	2.6337102071121463	0.8262277978881547	0.6924517942584523	2.642046001312788	0.7932814586609318	0.6192811169942412	2.6131323287878603	0.4666261530593627	0.5930320370936408	2.6855467245280655	0.10064633715590851	0.6117853193338599	2.502585149092523	0.024473820018967807	0.5799533929668589	2.5499093134300264	0.02103211729283114	0.5297413508941086	2.737040662397767	0.03522151326377643	0.6220651492460876	2.6273090796358183	0.7955208373301588	0.7846507661945676	2.632279353226522	0.4399061768770873	0.7758132177596349	2.6961872468047954	0.09844981892905892	0.7966218177069727	2.5186348998104897	0.010456693634245734	0.7969105895870252	2.549954510479217	0.02641870621266305	0.8580445186392364	2.7461110081536653	0.026959442249532433	0.7801508859894467	2.589747955744939	1.4634001105458143	0.7122879523734176	2.508832112102805	1.6893096590117447	0.685473607910498	2.450420678164453	1.5959179096092087	0.6755681346414258	2.642614516122689	1.3623529548283282	0.5401292975671146	2.6655345494202582	1.070508806005579	0.5129583782335674	2.606763792964392	0.8397275946038714	0.4753182319467716	2.6122709956239807	1.346168534145021	0.8516416936563123	2.6517578782716065	1.0666248686041495	0.8988704693543016	2.630835597231677	0.8323553535114834	0.8992606694603287
3	0.1	2.635232050412148	0.828391315422183	0.6931507301082628	2.6421205481078807	0.7966287725528546	0.6183662355581799	2.6143424151813095	0.4690602665264423	0.5928644937965453	2.68193885001956	0.10508316750105329	0.6067374859138934	2.502883387542818	0.026840950386598044	0.580819706953597	2.544626117563961	0.024364979746861037	0.5243027254896074	2.737855667073031	0.0335612315412025	0.6245817268206654	2.6291128809884583	0.798561616281911	0.7824115842473388	2.625754967975661	0.4448014182098476	0.7760328446737224	2.6942341738642197	0.09767729690935303	0.7926180978487514	2.524830037277412	0.00997862415749488	0.8000284895101245	2.541310974118425	0.028820875803811537	0.8458948019219935	2.746189365202295	0.026970314633203	0.7816611777613424	2.5894637233650726	1.4611074071382455	0.7102520818058465	2.5125218720685276	1.691741692604866	0.6815812821294994	2.451105492015996	1.5968064227450816	0.6783535710757979	2.6418896908218565	1.361790742958611	0.5386430050412278	2.6582027490902913	1.071903644162997	0.5012620323922024	2.6073902341799453	0.8420548226433753	0.4731926903535101	2.6025101532955777	1.3440981535471757	0.8637196248953277	2.6510281012953203	1.0671146948360528	0.89766446068779	2.6330660814699174	0.8350797637913745	0.8988428599023047
4	0.1333333333333333	2.636351501141193	0.8299155293806934	0.6935426591218615	2.6423485016453885	0.7988908730908442	0.617635391405708	2.6153089891320938	0.470620307315445	0.5926095476469766	2.679757205305159	0.10810112085709811	0.6034050569742844	2.503273705471095	0.02848656900061437	0.5822359973266791	2.5412451745328384	0.02642832511100665	0.5207938647702246	2.7387371814593617	0.03248149805120746	0.6266204253197233	2.6301781848464754	0.8005755571262224	0.7809756613099637	2.6210501877484553	0.44841395253156946	0.7763314285506359	2.6921903442038375	0.09764740541947221	0.7892060048315713	2.528377563272329	0.010076588365975215	0.8021503286367024	2.535454944449654	0.030554337676926512	0.8380511176736894	2.7456815101786454	0.027114848072392367	0.7819692778913846	2.588619183632076	1.4589579555965402	0.7080345666339596	2.514665500228972	1.6929230149304093	0.6795888903704312	2.451645866162617	1.5972566887151105	0.6804152743102753	2.6414269154275356	1.3613445847446832	0.5373666333374685	2.65342559767522	1.0727629534024423	0.49346558656163025	2.607924264522303	0.8436048984787561	0.4716358560902234	2.5962305995442376	1.3427669907940116	0.8714195250041847	2.650706756680726	1.0671323799745596	0.8962797500447208	2.634504166508616	0.8368319961626846	0.8984325782116424
